<svg id="visual" viewBox="0 0 900 300" width="900" height="300" xmlns="http://www.w3.org/2000/svg" xmlns:xlink="http://www.w3.org/1999/xlink" version="1.1"><rect width="900" height="300" fill="#202731"></rect><g><g transform="translate(515 256)"><path d="M102.5 -74.7C124.1 -54.6 127 -12.5 114.7 20.2C102.5 52.8 75.1 76 40.6 97.8C6.1 119.6 -35.5 139.9 -72.4 130C-109.2 120 -141.3 79.8 -147 38.3C-152.7 -3.2 -132.1 -46 -103.2 -67.9C-74.3 -89.7 -37.1 -90.5 1.6 -91.8C40.4 -93.1 80.8 -94.9 102.5 -74.7Z" fill="#715DF2"></path></g><g transform="translate(855 90)"><path d="M63.7 -51.9C73.3 -38.8 65.4 -12.8 60.7 16.3C56 45.3 54.4 77.5 39.2 87C24 96.5 -4.9 83.4 -36.6 70.3C-68.2 57.2 -102.6 44.2 -113.3 19.5C-124.1 -5.3 -111.2 -41.8 -88.3 -58C-65.5 -74.1 -32.8 -69.8 -2.9 -67.5C27 -65.2 54.1 -65 63.7 -51.9Z" fill="#715DF2"></path></g><g transform="translate(11 121)"><path d="M45.5 -27C62.3 -15.2 81.6 3.9 80.1 21.4C78.6 38.8 56.3 54.6 33.7 62.8C11.1 70.9 -11.8 71.4 -30.2 62.6C-48.7 53.7 -62.7 35.6 -66.2 16.3C-69.7 -3.1 -62.7 -23.8 -49.9 -34.7C-37.1 -45.6 -18.6 -46.8 -2.1 -45.1C14.3 -43.4 28.6 -38.8 45.5 -27Z" fill="#715DF2"></path></g></g></svg>