<svg id="visual" viewBox="0 0 900 300" width="900" height="300" xmlns="http://www.w3.org/2000/svg" xmlns:xlink="http://www.w3.org/1999/xlink" version="1.1"><path d="M0 118L13.7 106.5C27.3 95 54.7 72 82 62.5C109.3 53 136.7 57 163.8 56C191 55 218 49 245.2 55.5C272.3 62 299.7 81 327 80C354.3 79 381.7 58 409 59C436.3 60 463.7 83 491 89C518.3 95 545.7 84 573 80C600.3 76 627.7 79 654.8 80C682 81 709 80 736.2 75.5C763.3 71 790.7 63 818 63.5C845.3 64 872.7 73 886.3 77.5L900 82L900 0L886.3 0C872.7 0 845.3 0 818 0C790.7 0 763.3 0 736.2 0C709 0 682 0 654.8 0C627.7 0 600.3 0 573 0C545.7 0 518.3 0 491 0C463.7 0 436.3 0 409 0C381.7 0 354.3 0 327 0C299.7 0 272.3 0 245.2 0C218 0 191 0 163.8 0C136.7 0 109.3 0 82 0C54.7 0 27.3 0 13.7 0L0 0Z" fill="#ff0066"></path><path d="M0 163L13.7 151C27.3 139 54.7 115 82 104C109.3 93 136.7 95 163.8 93C191 91 218 85 245.2 89C272.3 93 299.7 107 327 104.5C354.3 102 381.7 83 409 88.5C436.3 94 463.7 124 491 132C518.3 140 545.7 126 573 118C600.3 110 627.7 108 654.8 108C682 108 709 110 736.2 104.5C763.3 99 790.7 86 818 89.5C845.3 93 872.7 113 886.3 123L900 133L900 80L886.3 75.5C872.7 71 845.3 62 818 61.5C790.7 61 763.3 69 736.2 73.5C709 78 682 79 654.8 78C627.7 77 600.3 74 573 78C545.7 82 518.3 93 491 87C463.7 81 436.3 58 409 57C381.7 56 354.3 77 327 78C299.7 79 272.3 60 245.2 53.5C218 47 191 53 163.8 54C136.7 55 109.3 51 82 60.5C54.7 70 27.3 93 13.7 104.5L0 116Z" fill="#bd2b84"></path><path d="M0 193L13.7 184.5C27.3 176 54.7 159 82 155C109.3 151 136.7 160 163.8 159.5C191 159 218 149 245.2 154C272.3 159 299.7 179 327 179C354.3 179 381.7 159 409 159.5C436.3 160 463.7 181 491 187.5C518.3 194 545.7 186 573 174.5C600.3 163 627.7 148 654.8 145.5C682 143 709 153 736.2 149C763.3 145 790.7 127 818 129C845.3 131 872.7 153 886.3 164L900 175L900 131L886.3 121C872.7 111 845.3 91 818 87.5C790.7 84 763.3 97 736.2 102.5C709 108 682 106 654.8 106C627.7 106 600.3 108 573 116C545.7 124 518.3 138 491 130C463.7 122 436.3 92 409 86.5C381.7 81 354.3 100 327 102.5C299.7 105 272.3 91 245.2 87C218 83 191 89 163.8 91C136.7 93 109.3 91 82 102C54.7 113 27.3 137 13.7 149L0 161Z" fill="#733c81"></path><path d="M0 256L13.7 258.5C27.3 261 54.7 266 82 263.5C109.3 261 136.7 251 163.8 246.5C191 242 218 243 245.2 242.5C272.3 242 299.7 240 327 240C354.3 240 381.7 242 409 246C436.3 250 463.7 256 491 260.5C518.3 265 545.7 268 573 266C600.3 264 627.7 257 654.8 257.5C682 258 709 266 736.2 268.5C763.3 271 790.7 268 818 263C845.3 258 872.7 251 886.3 247.5L900 244L900 173L886.3 162C872.7 151 845.3 129 818 127C790.7 125 763.3 143 736.2 147C709 151 682 141 654.8 143.5C627.7 146 600.3 161 573 172.5C545.7 184 518.3 192 491 185.5C463.7 179 436.3 158 409 157.5C381.7 157 354.3 177 327 177C299.7 177 272.3 157 245.2 152C218 147 191 157 163.8 157.5C136.7 158 109.3 149 82 153C54.7 157 27.3 174 13.7 182.5L0 191Z" fill="#373860"></path><path d="M0 301L13.7 301C27.3 301 54.7 301 82 301C109.3 301 136.7 301 163.8 301C191 301 218 301 245.2 301C272.3 301 299.7 301 327 301C354.3 301 381.7 301 409 301C436.3 301 463.7 301 491 301C518.3 301 545.7 301 573 301C600.3 301 627.7 301 654.8 301C682 301 709 301 736.2 301C763.3 301 790.7 301 818 301C845.3 301 872.7 301 886.3 301L900 301L900 242L886.3 245.5C872.7 249 845.3 256 818 261C790.7 266 763.3 269 736.2 266.5C709 264 682 256 654.8 255.5C627.7 255 600.3 262 573 264C545.7 266 518.3 263 491 258.5C463.7 254 436.3 248 409 244C381.7 240 354.3 238 327 238C299.7 238 272.3 240 245.2 240.5C218 241 191 240 163.8 244.5C136.7 249 109.3 259 82 261.5C54.7 264 27.3 259 13.7 256.5L0 254Z" fill="#202731"></path></svg>